PathFileType  4	(X/Y/Z) C:\MyRepositories_Xander\mocap-processing\Testing_HJC_Function\TRCs_w_HJCs
DataRate	CameraRate	NumFrames	NumMarkers	Units	OrigDataRate	OrigDataStartFrame	OrigNumFrames
  240.0		  240.0		    4		    151		 mm	  240.0	      137	    544
Frame#	Time	LFHD			RFHD			LBHD			C7			T10			CLAV			STRN			RBAK			LSHO			LUPA			LELB			LFRM			LWRA			LWRB			LFIN			RSHO			RUPA			RELB			RFRM			RWRA			RWRB			RFIN			LASI			RASI			LPSI			RPSI			SACR			LTHI			LKNE			LMKN			LTIB			LANK			LMED			LHEE			LTOE			RTHI			RKNE			RMKN			RTIB			RANK			RMED			RHEE			RTOE			PELO			PELA			PELL			PELP			LFEO			LFEA			LFEL			LFEP			LTIO			LTIA			LTIL			LTIP			LFOO			LFOA			LFOL			LFOP			LTOO			LTOA			LTOL			LTOP			RFEO			RFEA			RFEL			RFEP			RTIO			RTIA			RTIL			RTIP			RFOO			RFOA			RFOL			RFOP			RTOO			RTOA			RTOL			RTOP			HEDO			HEDA			HEDL			HEDP			LCLO			LCLA			LCLL			LCLP			RCLO			RCLA			RCLL			RCLP			TRXO			TRXA			TRXL			TRXP			LHUO			LHUA			LHUL			LHUP			LRAO			LRAA			LRAL			LRAP			LHNO			LHNA			LHNL			LHNP			RHUO			RHUA			RHUL			RHUP			RRAO			RRAA			RRAL			RRAP			RHNO			RHNA			RHNL			RHNP			RBHD			*120			*121			*122			LHipAngles			LKneeAngles			LAbsAnkleAngle			LAnkleAngles			RHipAngles			RKneeAngles			RAnkleAngles			RAbsAnkleAngle			LPelvisAngles			RPelvisAngles			LFootProgressAngles			RFootProgressAngles			RNeckAngles			LNeckAngles			RSpineAngles			LSpineAngles			LShoulderAngles			LElbowAngles			LWristAngles			RShoulderAngles			RElbowAngles			RWristAngles			RThoraxAngles			LThoraxAngles			RHeadAngles			LHeadAngles			RHJC			LHJC			
		X1	Y1	Z1	X2	Y2	Z2	X3	Y3	Z3	X4	Y4	Z4	X5	Y5	Z5	X6	Y6	Z6	X7	Y7	Z7	X8	Y8	Z8	X9	Y9	Z9	X10	Y10	Z10	X11	Y11	Z11	X12	Y12	Z12	X13	Y13	Z13	X14	Y14	Z14	X15	Y15	Z15	X16	Y16	Z16	X17	Y17	Z17	X18	Y18	Z18	X19	Y19	Z19	X20	Y20	Z20	X21	Y21	Z21	X22	Y22	Z22	X23	Y23	Z23	X24	Y24	Z24	X25	Y25	Z25	X26	Y26	Z26	X27	Y27	Z27	X28	Y28	Z28	X29	Y29	Z29	X30	Y30	Z30	X31	Y31	Z31	X32	Y32	Z32	X33	Y33	Z33	X34	Y34	Z34	X35	Y35	Z35	X36	Y36	Z36	X37	Y37	Z37	X38	Y38	Z38	X39	Y39	Z39	X40	Y40	Z40	X41	Y41	Z41	X42	Y42	Z42	X43	Y43	Z43	X44	Y44	Z44	X45	Y45	Z45	X46	Y46	Z46	X47	Y47	Z47	X48	Y48	Z48	X49	Y49	Z49	X50	Y50	Z50	X51	Y51	Z51	X52	Y52	Z52	X53	Y53	Z53	X54	Y54	Z54	X55	Y55	Z55	X56	Y56	Z56	X57	Y57	Z57	X58	Y58	Z58	X59	Y59	Z59	X60	Y60	Z60	X61	Y61	Z61	X62	Y62	Z62	X63	Y63	Z63	X64	Y64	Z64	X65	Y65	Z65	X66	Y66	Z66	X67	Y67	Z67	X68	Y68	Z68	X69	Y69	Z69	X70	Y70	Z70	X71	Y71	Z71	X72	Y72	Z72	X73	Y73	Z73	X74	Y74	Z74	X75	Y75	Z75	X76	Y76	Z76	X77	Y77	Z77	X78	Y78	Z78	X79	Y79	Z79	X80	Y80	Z80	X81	Y81	Z81	X82	Y82	Z82	X83	Y83	Z83	X84	Y84	Z84	X85	Y85	Z85	X86	Y86	Z86	X87	Y87	Z87	X88	Y88	Z88	X89	Y89	Z89	X90	Y90	Z90	X91	Y91	Z91	X92	Y92	Z92	X93	Y93	Z93	X94	Y94	Z94	X95	Y95	Z95	X96	Y96	Z96	X97	Y97	Z97	X98	Y98	Z98	X99	Y99	Z99	X100	Y100	Z100	X101	Y101	Z101	X102	Y102	Z102	X103	Y103	Z103	X104	Y104	Z104	X105	Y105	Z105	X106	Y106	Z106	X107	Y107	Z107	X108	Y108	Z108	X109	Y109	Z109	X110	Y110	Z110	X111	Y111	Z111	X112	Y112	Z112	X113	Y113	Z113	X114	Y114	Z114	X115	Y115	Z115	X116	Y116	Z116	X117	Y117	Z117	X118	Y118	Z118	X119	Y119	Z119	X120	Y120	Z120	X121	Y121	Z121	X122	Y122	Z122	X123	Y123	Z123	X124	Y124	Z124	X125	Y125	Z125	X126	Y126	Z126	X127	Y127	Z127	X128	Y128	Z128	X129	Y129	Z129	X130	Y130	Z130	X131	Y131	Z131	X132	Y132	Z132	X133	Y133	Z133	X134	Y134	Z134	X135	Y135	Z135	X136	Y136	Z136	X137	Y137	Z137	X138	Y138	Z138	X139	Y139	Z139	X140	Y140	Z140	X141	Y141	Z141	X142	Y142	Z142	X143	Y143	Z143	X144	Y144	Z144	X145	Y145	Z145	X146	Y146	Z146	X147	Y147	Z147	X148	Y148	Z148	X149	Y149	Z149	X150	Y150	Z150	X151	Y151	Z151	

137	0.56667	-556.237	1648.631	216.119	-410.762	1654.760	218.376	-508.179	1535.854	337.401	-474.860	1430.174	343.979	-467.421	1222.130	394.340	-481.244	1360.057	209.658	-475.549	1144.260	174.202	-379.478	1369.629	372.874	-641.977	1432.926	295.070	-726.095	1282.227	321.261	-803.310	1208.607	316.069	-884.387	1134.336	330.961	-979.536	1081.596	337.642	-944.119	1035.487	331.885	-997.188	1008.640	371.953	-307.533	1428.712	297.838	-242.246	1275.958	317.139	-197.824	1180.524	320.695	-108.871	1095.539	321.798	-15.998	1039.580	316.695	-53.710	1012.479	324.548	2.953	977.628	350.925	-610.817	954.082	198.107	-352.091	931.754	208.264	-539.977	991.472	382.470	-424.805	981.020	384.725	-486.305	966.679	397.491	-703.029	664.447	282.240	-680.820	495.463	327.327	-551.276	469.833	332.821	-724.772	266.992	352.216	-685.087	95.738	374.799	-605.288	99.659	347.168	-645.209	86.635	425.462	-663.125	71.212	219.298	-263.406	639.748	289.866	-262.868	493.240	304.662	-394.512	462.480	317.252	-185.288	267.701	352.743	-193.295	94.826	356.934	-277.191	97.342	349.707	-230.749	85.101	424.586	-216.642	65.414	217.632	-490.988	858.036	259.451	-485.826	835.961	79.417	-671.634	873.626	252.360	-474.657	1037.469	237.918	-616.217	488.711	322.984	-648.327	424.472	-54.878	-997.908	528.603	348.639	-581.311	865.831	255.906	-649.170	97.503	362.363	-769.280	72.344	11.903	-999.160	138.760	479.349	-618.158	465.669	325.304	-675.899	86.028	221.768	-653.079	285.235	219.785	-874.359	108.934	239.014	-658.540	86.028	421.535	-681.686	86.028	155.178	-674.079	152.430	154.517	-747.839	93.663	160.927	-675.899	86.028	221.768	-325.042	481.618	313.016	-364.198	422.972	-59.986	-694.977	412.471	362.722	-400.665	850.241	262.997	-232.134	95.991	353.589	-200.921	64.229	-19.777	-596.460	5.817	330.802	-319.748	459.645	315.328	-206.588	86.413	212.064	-254.752	281.838	208.781	-401.561	38.137	198.774	-220.277	86.413	412.897	-202.025	86.413	145.119	-218.080	151.555	144.025	-267.016	70.321	140.689	-206.588	86.413	212.064	NaN	NaN	NaN	NaN	NaN	NaN	NaN	NaN	NaN	NaN	NaN	NaN	-649.125	1376.509	291.196	-721.814	1397.292	122.641	-625.960	1559.354	303.752	-480.880	1360.314	216.644	-301.273	1373.318	292.512	-227.464	1398.882	113.396	-279.427	1180.028	273.927	-480.880	1360.314	216.644	-480.880	1360.314	216.644	-490.749	1353.337	26.958	-291.157	1365.838	206.570	-474.997	1170.452	223.321	-790.611	1202.359	274.249	-689.963	1139.183	83.167	-933.738	1330.087	156.631	-649.125	1376.509	291.196	-963.699	1057.943	328.045	-921.895	941.980	151.244	-1100.791	1180.285	215.387	-802.728	1192.250	278.015	-1044.198	952.026	380.019	-991.598	976.126	510.602	-938.592	859.287	354.595	-963.699	1057.943	328.045	-213.986	1176.479	278.087	-393.765	1103.693	183.457	-295.434	1126.188	471.503	-301.273	1373.318	292.512	-34.873	1024.105	313.891	-154.118	862.244	221.592	-118.362	972.553	512.158	-201.449	1165.813	280.593	41.804	918.865	350.959	38.021	961.364	479.443	153.316	992.670	329.829	-34.873	1024.105	313.891	NaN	NaN	NaN	-471.545	1389.438	354.587	-460.120	1531.793	334.848	NaN	NaN	NaN	-0.041	-6.151	3.229	-0.762	-14.539	4.274	0.000	0.000	-5.290	0.006	13.488	-5.440	16.673	7.667	0.414	2.154	-11.284	1.456	-0.007	-0.396	-4.915	0.000	0.000	-4.915	-5.163	1.637	-6.843	5.163	-1.637	-6.843	6.559	-4.966	90.000	13.876	-3.899	90.000	NaN	NaN	NaN	NaN	NaN	NaN	7.173	-4.477	4.478	-7.173	4.477	4.478	-40.708	-147.394	-7.829	0.000	0.000	-20.869	-14.635	140.429	-0.523	-22.455	-119.656	-4.542	0.000	-0.000	-28.505	-12.286	126.251	8.785	-1.774	2.978	-2.014	1.774	-2.978	-2.014	NaN	NaN	NaN	NaN	NaN	NaN	-396.888	861.149	278.570	-567.678	876.649	275.226
138	0.57083	-556.245	1648.608	216.149	-410.718	1654.784	218.319	-508.165	1535.872	337.460	-474.894	1430.224	343.992	-467.445	1222.226	394.389	-480.591	1359.943	209.903	-475.009	1145.044	178.070	-379.433	1369.736	372.760	-641.901	1433.039	294.889	-726.148	1282.458	320.945	-803.420	1208.903	315.708	-884.454	1134.479	330.555	-979.492	1081.611	337.198	-944.002	1035.435	331.379	-997.012	1008.675	371.423	-307.537	1428.866	297.648	-242.296	1276.014	316.911	-197.903	1180.660	320.453	-108.980	1095.661	321.548	-16.500	1039.610	316.577	-53.903	1012.502	324.240	2.703	977.668	350.724	-610.930	954.103	198.176	-352.370	931.757	208.075	-539.800	991.544	382.449	-424.803	981.043	384.716	-486.334	966.727	397.537	-703.048	664.456	282.311	-680.866	495.580	327.471	-551.294	469.836	332.878	-724.717	266.948	352.303	-685.084	95.747	374.784	-605.248	99.726	347.140	-645.222	86.655	425.484	-663.120	71.154	219.305	-263.480	639.670	289.957	-262.926	493.366	304.820	-394.499	462.355	317.223	-185.277	267.692	352.793	-193.183	94.936	357.042	-277.196	97.320	349.690	-230.627	85.108	424.532	-216.655	65.421	217.642	-491.140	858.056	259.411	-486.157	835.959	79.374	-671.791	873.668	252.495	-474.807	1037.484	237.841	-616.258	488.851	323.171	-648.106	424.438	-54.589	-997.887	528.598	348.568	-581.465	865.862	255.953	-649.168	97.537	362.348	-769.303	72.545	11.799	-999.239	138.696	479.384	-618.196	465.807	325.478	-675.881	86.057	221.750	-653.119	285.272	219.774	-874.349	108.905	238.978	-658.540	86.057	421.519	-681.661	86.057	155.160	-674.074	152.462	154.501	-747.817	93.673	160.903	-675.881	86.057	221.750	-325.100	481.729	313.152	-364.055	422.839	-59.786	-694.990	412.497	362.720	-400.814	850.249	262.868	-232.019	96.038	353.644	-200.237	64.504	-19.786	-596.354	5.657	330.268	-319.798	459.757	315.458	-206.557	86.468	212.103	-254.822	281.869	208.844	-401.514	38.094	198.937	-220.121	86.468	412.945	-202.036	86.468	145.156	-218.124	151.602	144.069	-267.022	70.344	140.767	-206.557	86.468	212.103	NaN	NaN	NaN	NaN	NaN	NaN	NaN	NaN	NaN	NaN	NaN	NaN	-648.893	1376.576	291.431	-721.744	1395.953	122.375	-626.189	1559.936	302.663	-480.252	1360.260	216.888	-301.409	1373.412	292.820	-227.351	1397.138	114.283	-280.101	1180.572	276.033	-480.252	1360.260	216.888	-480.252	1360.260	216.888	-489.460	1351.658	27.386	-290.645	1365.687	207.428	-474.408	1170.612	225.213	-791.044	1203.045	273.735	-693.545	1142.927	80.054	-935.681	1333.068	160.566	-648.893	1376.576	291.431	-963.624	1057.926	327.572	-924.678	945.023	148.080	-1102.204	1182.504	219.141	-803.125	1192.887	277.504	-1043.942	952.135	379.435	-991.362	976.122	509.790	-938.505	859.586	353.936	-963.624	1057.926	327.572	-213.922	1176.798	277.774	-392.948	1104.501	181.544	-296.584	1125.285	470.259	-301.409	1373.412	292.820	-35.201	1024.151	313.673	-153.898	863.054	219.586	-119.930	971.350	510.971	-201.411	1166.113	280.286	41.766	918.980	350.752	37.507	961.229	479.425	153.201	993.236	330.059	-35.201	1024.151	313.673	NaN	NaN	NaN	-471.550	1389.487	354.529	-439.515	1535.085	333.866	NaN	NaN	NaN	-0.054	-6.055	3.241	-0.755	-14.581	4.329	0.000	0.000	-5.261	0.006	13.498	-5.411	16.689	7.575	0.463	2.166	-11.354	1.510	-0.007	-0.270	-4.909	0.000	0.000	-4.909	-5.164	1.580	-6.855	5.164	-1.580	-6.855	6.543	-4.961	90.000	13.905	-3.864	90.000	NaN	NaN	NaN	NaN	NaN	NaN	7.125	-4.239	4.014	-7.125	4.239	4.014	-40.969	-149.192	-8.281	-0.000	-0.000	-20.806	-14.452	141.743	-0.949	-22.576	-120.173	-5.233	0.000	0.000	-28.424	-12.231	126.568	8.481	-1.763	2.780	-2.513	1.763	-2.780	-2.513	NaN	NaN	NaN	NaN	NaN	NaN	-397.194	861.156	278.505	-567.861	876.741	275.139
139	0.57500	-556.275	1648.608	216.159	-410.698	1654.802	218.359	-508.188	1535.959	337.508	-474.998	1430.335	344.047	-467.407	1222.228	394.385	-480.656	1359.959	209.925	-475.584	1144.309	174.574	-379.411	1369.842	372.696	-641.731	1433.246	294.720	-726.309	1282.692	320.673	-803.624	1209.119	315.370	-884.478	1134.580	330.161	-979.470	1081.600	336.781	-944.082	1035.490	330.858	-996.885	1008.744	371.092	-307.563	1429.008	297.479	-242.284	1276.198	316.741	-197.977	1180.708	320.163	-109.011	1095.663	321.205	-16.540	1039.615	316.250	-54.058	1012.560	323.996	2.486	977.738	350.530	-610.958	954.168	198.258	-352.010	931.798	208.396	-539.776	991.537	382.463	-424.862	981.105	384.746	-486.332	966.779	397.551	-703.072	664.455	282.396	-680.841	495.631	327.531	-551.210	469.884	333.179	-724.786	266.993	352.298	-685.076	95.757	374.791	-605.215	99.666	346.996	-645.198	86.650	425.480	-663.100	71.087	219.249	-263.507	639.805	290.138	-263.133	493.185	304.336	-394.587	462.385	317.204	-185.304	267.703	352.840	-193.233	94.714	356.811	-277.205	97.324	349.725	-230.755	85.016	424.585	-216.630	65.383	217.639	-491.019	858.114	259.612	-485.881	835.999	79.582	-671.665	873.720	252.540	-474.675	1037.541	238.038	-616.233	488.888	323.238	-648.050	424.534	-54.552	-997.874	528.722	348.594	-581.342	865.917	256.076	-649.179	97.514	362.297	-769.918	72.707	11.890	-999.092	138.711	479.950	-618.173	465.843	325.538	-675.893	86.037	221.700	-653.104	285.248	219.721	-874.358	108.911	238.928	-658.552	86.036	421.469	-681.674	86.037	155.110	-674.077	152.440	154.451	-747.828	93.661	160.853	-675.893	86.037	221.700	-325.364	481.517	312.185	-361.767	424.418	-61.317	-695.620	412.095	358.885	-400.696	850.312	263.149	-232.076	95.921	353.533	-201.576	63.251	-19.951	-596.518	5.408	331.689	-320.050	459.553	314.541	-206.509	86.357	212.011	-254.837	281.741	208.712	-401.440	37.916	198.706	-220.217	86.357	412.843	-201.940	86.357	145.067	-218.049	151.485	143.967	-266.917	70.210	140.632	-206.509	86.357	212.011	NaN	NaN	NaN	NaN	NaN	NaN	NaN	NaN	NaN	NaN	NaN	NaN	-648.977	1376.840	290.873	-721.047	1397.625	121.847	-625.470	1559.835	303.353	-480.308	1360.216	216.912	-301.199	1373.621	292.200	-227.999	1399.064	113.530	-279.065	1181.004	273.840	-480.308	1360.216	216.912	-480.308	1360.216	216.912	-489.748	1353.233	27.439	-290.791	1365.539	207.273	-474.641	1170.583	223.619	-790.432	1202.500	273.760	-689.072	1138.984	83.003	-933.307	1330.045	155.375	-648.977	1376.840	290.873	-963.649	1057.971	327.099	-921.077	941.794	150.554	-1100.451	1180.094	213.746	-802.557	1192.383	277.494	-1043.763	952.189	379.291	-990.687	976.204	509.438	-938.422	859.639	353.409	-963.649	1057.971	327.099	-214.058	1176.771	277.514	-393.601	1104.403	182.192	-296.094	1126.056	470.535	-301.199	1373.621	292.200	-35.308	1024.172	313.390	-154.417	862.781	220.362	-119.371	972.204	511.180	-201.545	1166.089	280.025	41.405	919.007	350.675	37.262	961.538	479.162	152.907	992.941	329.797	-35.308	1024.172	313.390	NaN	NaN	NaN	-471.528	1389.564	354.574	NaN	NaN	NaN	-459.615	1531.571	333.899	-0.046	-6.100	3.231	-0.765	-14.684	4.337	0.000	0.000	-5.242	0.006	13.595	-5.394	16.628	7.248	0.247	2.211	-10.690	1.203	-0.008	-0.552	-5.020	0.000	0.000	-5.020	-5.168	1.629	-6.857	5.168	-1.629	-6.857	6.550	-4.961	90.000	13.924	-3.905	90.000	NaN	NaN	NaN	NaN	NaN	NaN	7.105	-4.348	4.498	-7.105	4.348	4.498	-40.621	-147.283	-7.792	0.000	0.000	-20.820	-14.843	140.050	-0.646	-22.477	-119.754	-4.669	0.000	0.000	-28.489	-12.326	126.371	8.587	-1.711	2.852	-2.026	1.711	-2.852	-2.026	NaN	NaN	NaN	NaN	NaN	NaN	-396.874	861.153	278.743	-567.810	876.670	275.347
140	0.57917	-556.304	1648.604	216.187	-410.704	1654.812	218.343	-508.162	1535.997	337.540	-474.934	1430.328	344.029	-467.405	1222.262	394.408	-480.636	1359.990	209.963	-475.261	1145.016	175.060	-379.388	1369.925	372.626	-641.626	1433.386	294.635	-726.485	1282.899	320.398	-803.654	1209.262	314.961	-884.518	1134.677	329.746	-979.456	1081.595	336.348	-944.062	1035.515	330.393	-996.754	1008.764	370.722	-307.446	1429.153	297.390	-242.358	1276.193	316.517	-198.051	1180.764	319.813	-109.088	1095.714	320.930	-16.664	1039.531	315.891	-54.187	1012.567	323.827	2.301	977.719	350.297	-610.987	954.109	198.318	-352.193	931.801	208.245	-539.863	991.570	382.523	-424.871	981.112	384.780	-486.359	966.781	397.581	-703.096	664.450	282.477	-680.905	495.590	327.511	-551.416	469.798	332.729	-724.799	266.991	352.330	-685.098	95.746	374.787	-605.274	99.687	347.096	-645.198	86.641	425.482	-663.130	71.205	219.290	-263.545	639.680	290.196	-263.142	493.356	304.794	-394.602	462.346	317.254	-185.311	267.685	352.876	-193.099	95.048	357.056	-277.210	97.319	349.731	-230.639	84.968	424.492	-216.729	65.428	217.658	-491.065	858.089	259.582	-486.066	835.960	79.549	-671.719	873.661	252.652	-474.770	1037.517	237.980	-616.304	488.833	323.147	-648.533	424.656	-54.630	-997.899	528.748	348.921	-581.392	865.875	256.117	-649.188	97.519	362.330	-769.537	72.538	11.855	-999.187	138.672	479.582	-618.240	465.789	325.455	-675.924	86.039	221.737	-653.163	285.253	219.757	-874.389	108.886	238.997	-658.551	86.039	421.503	-681.715	86.039	155.148	-674.128	152.444	154.488	-747.870	93.655	160.901	-675.924	86.039	221.737	-325.348	481.728	312.900	-363.090	423.542	-60.203	-695.359	412.566	361.116	-400.738	850.303	263.047	-231.938	96.096	353.673	-200.271	64.280	-19.792	-596.257	5.400	330.509	-320.027	459.763	315.223	-206.507	86.540	212.126	-254.935	281.900	208.869	-401.427	38.003	199.017	-220.015	86.540	412.972	-202.005	86.540	145.178	-218.147	151.660	144.092	-266.978	70.361	140.808	-206.507	86.540	212.126	NaN	NaN	NaN	NaN	NaN	NaN	NaN	NaN	NaN	NaN	NaN	NaN	-648.883	1376.977	290.842	-720.896	1397.603	121.871	-625.351	1559.891	303.141	-480.292	1360.256	216.950	-301.092	1373.757	292.198	-227.907	1398.908	113.401	-278.988	1181.034	274.136	-480.292	1360.256	216.950	-480.292	1360.256	216.950	-489.621	1353.041	27.488	-290.781	1365.688	207.411	-474.508	1170.642	223.886	-790.907	1203.108	273.141	-692.320	1142.236	80.035	-935.214	1332.641	158.636	-648.883	1376.977	290.842	-963.639	1057.979	326.653	-923.637	944.410	147.765	-1101.818	1182.012	217.010	-802.999	1192.949	276.887	-1043.563	952.188	379.024	-990.293	976.305	509.036	-938.222	859.727	353.014	-963.639	1057.979	326.653	-213.955	1177.003	277.082	-392.994	1105.126	180.583	-296.935	1125.477	469.417	-301.092	1373.757	292.198	-35.454	1024.109	313.133	-154.225	863.199	218.784	-120.518	971.288	510.300	-201.460	1166.301	279.606	41.050	918.922	350.501	37.360	961.816	478.798	152.616	992.470	329.121	-35.454	1024.109	313.133	NaN	NaN	NaN	-471.525	1389.586	354.548	-458.294	1529.937	325.919	NaN	NaN	NaN	-0.024	-6.122	3.203	-0.778	-14.557	4.297	0.000	0.000	-5.261	0.006	13.523	-5.412	16.627	7.400	0.384	2.243	-11.125	1.402	-0.007	-0.288	-4.949	0.000	0.000	-4.949	-5.152	1.585	-6.865	5.152	-1.585	-6.865	6.542	-4.970	90.000	13.953	-3.847	90.000	NaN	NaN	NaN	NaN	NaN	NaN	7.119	-4.269	4.440	-7.119	4.269	4.440	-40.850	-148.523	-7.978	-0.000	0.000	-20.784	-14.737	141.210	-1.062	-22.462	-120.115	-4.862	0.000	-0.000	-28.466	-12.380	127.000	8.486	-1.746	2.818	-2.095	1.746	-2.818	-2.095	NaN	NaN	NaN	NaN	NaN	NaN	-397.026	861.156	278.674	-567.851	876.691	275.322
